<?xml version="1.0" encoding="UTF-8" standalone="no"?>
<!-- Created with Inkscape (http://www.inkscape.org/) -->

<svg
   width="143.8551mm"
   height="346.2818mm"
   viewBox="0 0 543.70434 1308.7817"
   version="1.1"
   id="svg5"
   sodipodi:docname="errr.svg"
   inkscape:export-filename="queer-crop.svg"
   inkscape:export-xdpi="96"
   inkscape:export-ydpi="96"
   inkscape:version="1.3.2 (091e20e, 2023-11-25, custom)"
   xmlns:inkscape="http://www.inkscape.org/namespaces/inkscape"
   xmlns:sodipodi="http://sodipodi.sourceforge.net/DTD/sodipodi-0.dtd"
   xmlns="http://www.w3.org/2000/svg"
   xmlns:svg="http://www.w3.org/2000/svg">
  <sodipodi:namedview
     id="namedview1517"
     pagecolor="#505050"
     bordercolor="#eeeeee"
     borderopacity="1"
     inkscape:showpageshadow="0"
     inkscape:pageopacity="0"
     inkscape:pagecheckerboard="0"
     inkscape:deskcolor="#505050"
     inkscape:document-units="mm"
     showgrid="false"
     showguides="true"
     inkscape:zoom="0.63709256"
     inkscape:cx="226.02681"
     inkscape:cy="693.77674"
     inkscape:window-width="1920"
     inkscape:window-height="1051"
     inkscape:window-x="-9"
     inkscape:window-y="-9"
     inkscape:window-maximized="1"
     inkscape:current-layer="svg5">
    <sodipodi:guide
       position="11.88425,668.10158"
       orientation="1,0"
       id="guide1"
       inkscape:locked="false" />
    <sodipodi:guide
       position="387.04044,425.15988"
       orientation="1,0"
       id="guide2"
       inkscape:locked="false" />
    <sodipodi:guide
       position="354.05696,486.57139"
       orientation="0,-1"
       id="guide3"
       inkscape:locked="false" />
    <sodipodi:guide
       position="395.12313,467.42568"
       orientation="1,0"
       id="guide4"
       inkscape:locked="false" />
    <sodipodi:guide
       position="531.6404,504.32974"
       orientation="1,0"
       id="guide5"
       inkscape:locked="false" />
  </sodipodi:namedview>
  <defs
     id="defs2" />
  <g
     id="layer1"
     transform="translate(-139.09553,189.6951)">
    <g
       aria-label="er"
       transform="rotate(90)"
       id="text113"
       style="font-weight:bold;font-size:990.354px;font-family:'IBM Plex Sans';-inkscape-font-specification:'IBM Plex Sans Bold';letter-spacing:-8.91319px;fill:#ffffff;stroke-width:1.48786">
      <path
         d="m 59.874114,-139.09553 q -59.42123946,0 -105.967879,-18.81673 -46.546635,-19.80708 -79.228315,-54.46947 -31.69133,-35.65274 -48.52735,-86.1608 -15.84567,-50.50805 -15.84567,-112.90036 0,-61.40194 15.84567,-110.91964 15.84566,-50.50806 46.54664,-86.1608 31.69133,-35.65275 77.247609,-54.46947 45.5562853,-19.80708 103.987171,-19.80708 64.37301,0 109.92929,21.78779 46.54664,21.78778 75.26691,58.43088 29.71062,36.6431 42.58522,85.17045 13.86496,47.53699 13.86496,100.02575 v 43.57558 H -38.170933 v 7.92283 q 0,51.49841 27.729912,82.19938 27.729914,29.71062 87.151153,29.71062 45.556288,0 74.276548,-17.82637 28.72027,-18.81673 53.47912,-44.56593 l 73.28619,91.11257 q -34.66239,40.60451 -91.11256,63.38265 -55.45983,22.77815 -126.765316,22.77815 z M 56.903052,-574.8513 q -44.565929,0 -70.315135,29.71062 -24.75885,28.72027 -24.75885,77.24762 v 7.92283 H 144.0542 v -8.91319 q 0,-47.53699 -21.78778,-76.25726 -20.79744,-29.71062 -65.363368,-29.71062 z"
         id="path1566" />
      <path
         d="M 348.6526,-150.97978 V -670.91563 H 495.225 v 112.90035 h 4.95177 q 3.96141,-21.78779 13.86495,-41.59487 9.90354,-20.79743 25.74921,-36.64309 16.83601,-15.84567 39.61416,-24.75885 22.77814,-9.90354 53.47911,-9.90354 h 25.74921 v 136.66885 h -36.6431 q -64.37301,0 -96.06434,16.83602 -30.70097,16.83601 -30.70097,62.3923 v 304.03868 z"
         id="path1568" />
    </g>
    <path
       style="font-weight:bold;font-size:113.394px;line-height:1;font-family:'IBM Plex Sans';-inkscape-font-specification:'IBM Plex Sans Bold';letter-spacing:-2.89263px;word-spacing:0px;fill:#ffffff;stroke-width:93.5764;stroke-linecap:round;stroke-linejoin:round;stroke-dashoffset:3.59055;paint-order:stroke fill markers"
       d="m 167.83731,658.2774 q -8.61794,0 -12.70013,-4.19557 -3.96879,-4.19558 -3.96879,-12.13316 v -67.58282 h 16.78232 v 70.87125 h 7.484 v 13.0403 z m 39.63006,1.36073 q -6.80364,0 -12.13316,-2.15448 -5.32951,-2.26788 -9.07152,-6.23667 -3.6286,-4.08219 -5.5563,-9.86528 -1.81431,-5.78309 -1.81431,-12.92692 0,-7.03042 1.81431,-12.70012 1.8143,-5.7831 5.32952,-9.86528 3.6286,-4.08219 8.84473,-6.23667 5.21612,-2.26788 11.90637,-2.26788 7.37061,0 12.58673,2.49467 5.32952,2.49466 8.61794,6.69024 3.40182,4.19558 4.87595,9.75189 1.58751,5.44291 1.58751,11.45279 v 4.98934 h -38.21377 v 0.90715 q 0,5.89649 3.17503,9.4117 3.17503,3.40182 9.97867,3.40182 5.21612,0 8.50455,-2.04109 3.28843,-2.15449 6.12328,-5.10273 l 8.39115,10.43224 q -3.96879,4.64916 -10.43225,7.25722 -6.35006,2.60806 -14.51443,2.60806 z m -0.34018,-49.89336 q -5.10273,0 -8.05097,3.40182 -2.83485,3.28843 -2.83485,8.84474 v 0.90715 h 20.86449 v -1.02055 q 0,-5.44291 -2.49467,-8.73134 -2.38127,-3.40182 -7.484,-3.40182 z m 44.73288,-17.34928 q -5.10273,0 -7.484,-2.26788 -2.26788,-2.38127 -2.26788,-6.00988 v -2.49467 q 0,-3.62861 2.26788,-5.89649 2.38127,-2.38127 7.484,-2.38127 5.10273,0 7.37061,2.38127 2.38127,2.26788 2.38127,5.89649 v 2.49467 q 0,3.62861 -2.38127,6.00988 -2.26788,2.26788 -7.37061,2.26788 z m -8.39115,6.35007 h 16.78231 v 59.53184 h -16.78231 z m 50.40246,59.53184 q -8.73134,0 -13.2671,-4.42236 -4.42236,-4.42237 -4.42236,-12.92692 v -29.14225 h -8.39116 v -13.04031 h 4.19558 q 3.40182,0 4.64915,-1.58752 1.24734,-1.70091 1.24734,-4.76255 v -9.75188 h 15.0814 v 16.10195 h 11.79298 v 13.04031 h -11.79298 v 33.45123 h 10.88582 v 13.0403 z m 54.82485,-9.97867 h -0.56697 q -0.79375,2.26788 -2.15448,4.30897 -1.24734,2.0411 -3.28843,3.62861 -2.04109,1.58752 -4.87594,2.49467 -2.72146,0.90715 -6.35006,0.90715 -9.18492,0 -13.94746,-6.00988 -4.64916,-6.12327 -4.64916,-17.46267 v -37.42002 h 16.78231 v 35.94589 q 0,5.44292 1.9277,8.39116 1.9277,2.94824 6.57685,2.94824 1.9277,0 3.8554,-0.56697 1.9277,-0.56697 3.40182,-1.58751 1.47412,-1.13394 2.38127,-2.72146 0.90715,-1.58751 0.90715,-3.742 v -38.66735 h 16.78232 v 59.53184 h -16.78232 z m 29.53813,9.97867 v -59.53184 h 16.78231 v 12.92691 h 0.56697 q 0.45357,-2.49467 1.58751,-4.76255 1.13394,-2.38127 2.94825,-4.19557 1.9277,-1.81431 4.53576,-2.83485 2.60806,-1.13394 6.12327,-1.13394 h 2.94825 v 15.64837 h -4.19558 q -7.37061,0 -10.99922,1.9277 -3.51521,1.92769 -3.51521,7.14382 v 34.81195 z m 85.32785,0 q -4.53576,0 -7.5974,-2.83485 -2.94825,-2.83485 -3.742,-7.59739 h -0.68037 q -1.36073,5.78309 -6.00988,8.84473 -4.64915,2.94824 -11.45279,2.94824 -8.95813,0 -13.72068,-4.76255 -4.76254,-4.76254 -4.76254,-12.58673 0,-9.4117 6.80364,-13.94746 6.91703,-4.64915 18.71001,-4.64915 h 9.4117 v -3.74201 q 0,-4.30897 -2.26788,-6.80364 -2.26788,-2.60806 -7.5974,-2.60806 -4.98934,0 -7.93758,2.15449 -2.94824,2.15448 -4.87594,4.87594 l -9.97867,-8.84473 q 3.6286,-5.32952 9.07152,-8.27776 5.5563,-3.06164 14.968,-3.06164 12.70013,0 19.05019,5.5563 6.35007,5.55631 6.35007,16.21535 v 26.08062 h 5.5563 v 13.0403 z m -23.24577,-10.31885 q 4.19558,0 7.14382,-1.8143 3.06164,-1.81431 3.06164,-5.89649 v -7.03043 h -8.16437 q -9.86528,0 -9.86528,6.69025 v 1.70091 q 0,3.28842 2.04109,4.87594 2.0411,1.47412 5.7831,1.47412 z m 61.0616,11.67958 q -8.61795,0 -14.51443,-2.72145 -5.89649,-2.83485 -10.54565,-7.93758 l 9.86528,-9.97867 q 3.17503,3.51521 7.03043,5.5563 3.8554,2.04109 8.73134,2.04109 4.98933,0 6.91703,-1.47412 1.9277,-1.58751 1.9277,-4.19558 0,-4.19557 -6.00988,-4.98933 l -6.46346,-0.79376 q -20.07074,-2.49467 -20.07074,-18.36983 0,-4.30897 1.58752,-7.82418 1.70091,-3.62861 4.64915,-6.12328 3.06164,-2.60806 7.25722,-3.96879 4.30897,-1.47412 9.63849,-1.47412 4.64915,0 8.16437,0.68036 3.6286,0.56697 6.35006,1.81431 2.83485,1.13394 5.10273,2.94824 2.38127,1.70091 4.64915,3.8554 l -9.63849,9.86527 q -2.83485,-2.83485 -6.46345,-4.42236 -3.51522,-1.70091 -7.25722,-1.70091 -4.30897,0 -6.12328,1.36073 -1.8143,1.36072 -1.8143,3.6286 0,2.38128 1.24733,3.74201 1.36073,1.24733 4.98934,1.8143 l 6.69025,0.90715 q 19.61716,2.60806 19.61716,17.91625 0,4.30898 -1.81431,7.93758 -1.8143,3.62861 -5.21612,6.35007 -3.28843,2.60806 -8.05097,4.08218 -4.64916,1.47412 -10.43225,1.47412 z"
       id="text1-8"
       aria-label="leituras" />
    <path
       style="font-weight:bold;font-size:113.394px;line-height:1;font-family:'IBM Plex Sans';-inkscape-font-specification:'IBM Plex Sans Bold';letter-spacing:-2.89263px;word-spacing:0px;fill:#ffffff;stroke-width:93.5764;stroke-linecap:round;stroke-linejoin:round;stroke-dashoffset:3.59055;paint-order:stroke fill markers"
       d="m 452.36968,726.20797 h -0.56697 q -0.68037,2.38128 -2.15449,4.53576 -1.47412,2.0411 -3.62861,3.62861 -2.04109,1.47412 -4.76255,2.26788 -2.60806,0.90715 -5.44291,0.90715 -11.3394,0 -17.12249,-7.93758 -5.78309,-8.05097 -5.78309,-23.24577 0,-15.19479 5.78309,-23.13237 5.78309,-7.93758 17.12249,-7.93758 5.7831,0 10.20546,3.17503 4.53576,3.17503 5.7831,8.16437 h 0.56697 v -9.97867 h 16.78231 v 82.21064 h -16.78231 z m -10.99922,-2.26788 q 4.76255,0 7.82418,-2.26788 3.17504,-2.38127 3.17504,-6.46345 v -17.57607 q 0,-4.08219 -3.17504,-6.35007 -3.06163,-2.38127 -7.82418,-2.38127 -4.76255,0 -7.93758,3.40182 -3.06164,3.28842 -3.06164,8.95812 v 10.31886 q 0,5.6697 3.06164,9.07152 3.17503,3.28842 7.93758,3.28842 z m 75.68938,2.26788 h -0.56697 q -0.79375,2.26788 -2.15448,4.30898 -1.24734,2.04109 -3.28843,3.6286 -2.04109,1.58752 -4.87594,2.49467 -2.72146,0.90715 -6.35006,0.90715 -9.18492,0 -13.94747,-6.00988 -4.64915,-6.12327 -4.64915,-17.46267 V 676.6548 h 16.78231 v 35.94589 q 0,5.44292 1.9277,8.39116 1.9277,2.94824 6.57685,2.94824 1.9277,0 3.8554,-0.56697 1.9277,-0.56697 3.40182,-1.58751 1.47412,-1.13394 2.38127,-2.72146 0.90715,-1.58751 0.90715,-3.742 V 676.6548 h 16.78232 v 59.53185 h -16.78232 z m 54.37142,11.3394 q -6.80364,0 -12.13316,-2.15448 -5.32952,-2.26788 -9.07152,-6.23667 -3.62861,-4.08219 -5.5563,-9.86528 -1.81431,-5.78309 -1.81431,-12.92692 0,-7.03042 1.81431,-12.70012 1.8143,-5.7831 5.32951,-9.86528 3.62861,-4.08219 8.84474,-6.23667 5.21612,-2.26788 11.90637,-2.26788 7.37061,0 12.58673,2.49467 5.32952,2.49466 8.61794,6.69024 3.40182,4.19558 4.87595,9.75189 1.58751,5.44291 1.58751,11.45279 v 4.98934 h -38.21378 v 0.90715 q 0,5.89649 3.17504,9.4117 3.17503,3.40182 9.97867,3.40182 5.21612,0 8.50455,-2.04109 3.28842,-2.15449 6.12327,-5.10273 l 8.39116,10.43225 q -3.96879,4.64915 -10.43225,7.25721 -6.35006,2.60806 -14.51443,2.60806 z m -0.34018,-49.89336 q -5.10273,0 -8.05098,3.40182 -2.83485,3.28843 -2.83485,8.84474 v 0.90715 h 20.8645 v -1.02055 q 0,-5.44291 -2.49467,-8.73134 -2.38127,-3.40182 -7.484,-3.40182 z"
       id="text1-8-5"
       aria-label="que" />
    <path
       style="font-weight:bold;font-size:113.394px;line-height:1;font-family:'IBM Plex Sans';-inkscape-font-specification:'IBM Plex Sans Bold';letter-spacing:-2.89263px;word-spacing:0px;fill:#ffffff;stroke-width:93.5764;stroke-linecap:round;stroke-linejoin:round;stroke-dashoffset:3.59055;paint-order:stroke fill markers"
       d="m 704.245,-609.32964 q -6.80364,0 -12.13316,-2.15449 -5.32952,-2.26788 -9.07152,-6.23667 -3.62861,-4.08218 -5.55631,-9.86527 -1.8143,-5.7831 -1.8143,-12.92692 0,-7.03043 1.8143,-12.70013 1.81431,-5.78309 5.32952,-9.86528 3.62861,-4.08218 8.84473,-6.23667 5.21613,-2.26788 11.90637,-2.26788 7.37061,0 12.58674,2.49467 5.32951,2.49467 8.61794,6.69025 3.40182,4.19558 4.87594,9.75188 1.58752,5.44291 1.58752,11.4528 v 4.98933 h -38.21378 v 0.90715 q 0,5.89649 3.17503,9.41171 3.17503,3.40182 9.97867,3.40182 5.21613,0 8.50455,-2.0411 3.28843,-2.15448 6.12328,-5.10273 l 8.39115,10.43225 q -3.96878,4.64916 -10.43224,7.25722 -6.35007,2.60806 -14.51443,2.60806 z m -0.34019,-49.89336 q -5.10273,0 -8.05097,3.40182 -2.83485,3.28843 -2.83485,8.84473 v 0.90715 h 20.8645 v -1.02054 q 0,-5.44291 -2.49467,-8.73134 -2.38128,-3.40182 -7.48401,-3.40182 z m 36.34173,48.53263 v -59.53185 h 16.78231 v 12.92692 h 0.56697 q 0.45358,-2.49467 1.58752,-4.76255 1.13394,-2.38127 2.94824,-4.19558 1.9277,-1.8143 4.53576,-2.83485 2.60806,-1.13394 6.12327,-1.13394 h 2.94825 v 15.64837 h -4.19558 q -7.37061,0 -10.99922,1.9277 -3.51521,1.9277 -3.51521,7.14382 v 34.81196 z m 42.91847,0 v -59.53185 h 16.78231 v 12.92692 h 0.56697 q 0.45357,-2.49467 1.58751,-4.76255 1.13394,-2.38127 2.94825,-4.19558 1.9277,-1.8143 4.53576,-2.83485 2.60806,-1.13394 6.12327,-1.13394 h 2.94825 v 15.64837 h -4.19558 q -7.37061,0 -10.99922,1.9277 -3.51521,1.9277 -3.51521,7.14382 v 34.81196 z m 42.91847,0 v -59.53185 h 16.78231 v 12.92692 h 0.56697 q 0.45358,-2.49467 1.58752,-4.76255 1.13394,-2.38127 2.94824,-4.19558 1.9277,-1.8143 4.53576,-2.83485 2.60806,-1.13394 6.12328,-1.13394 h 2.94824 v 15.64837 h -4.19558 q -7.37061,0 -10.99922,1.9277 -3.51521,1.9277 -3.51521,7.14382 v 34.81196 z m 42.91847,0 v -59.53185 h 16.78231 v 12.92692 h 0.56697 q 0.45358,-2.49467 1.58752,-4.76255 1.13394,-2.38127 2.94824,-4.19558 1.9277,-1.8143 4.53576,-2.83485 2.60806,-1.13394 6.12328,-1.13394 h 2.94824 v 15.64837 h -4.19558 q -7.37061,0 -10.99921,1.9277 -3.51522,1.9277 -3.51522,7.14382 v 34.81196 z m 42.91847,0 v -59.53185 h 16.78231 v 12.92692 h 0.56697 q 0.45358,-2.49467 1.58752,-4.76255 1.13394,-2.38127 2.94824,-4.19558 1.9277,-1.8143 4.53576,-2.83485 2.60807,-1.13394 6.12328,-1.13394 h 2.94824 v 15.64837 h -4.19557 q -7.37061,0 -10.99922,1.9277 -3.51522,1.9277 -3.51522,7.14382 v 34.81196 z m 42.91848,0 v -59.53185 h 16.78231 v 12.92692 h 0.56697 q 0.45357,-2.49467 1.58751,-4.76255 1.13394,-2.38127 2.94825,-4.19558 1.92769,-1.8143 4.53576,-2.83485 2.60806,-1.13394 6.12327,-1.13394 h 2.94825 v 15.64837 h -4.19558 q -7.37061,0 -10.99922,1.9277 -3.51521,1.9277 -3.51521,7.14382 v 34.81196 z m 42.91845,0 v -59.53185 h 16.78235 v 12.92692 h 0.5669 q 0.4536,-2.49467 1.5875,-4.76255 1.134,-2.38127 2.9483,-4.19558 1.9277,-1.8143 4.5358,-2.83485 2.608,-1.13394 6.1232,-1.13394 h 2.9483 v 15.64837 h -4.1956 q -7.3706,0 -10.9992,1.9277 -3.5152,1.9277 -3.5152,7.14382 v 34.81196 z m 42.91845,0 v -59.53185 h 16.7824 v 12.92692 h 0.5669 q 0.4536,-2.49467 1.5875,-4.76255 1.134,-2.38127 2.9483,-4.19558 1.9277,-1.8143 4.5357,-2.83485 2.6081,-1.13394 6.1233,-1.13394 h 2.9483 v 15.64837 h -4.1956 q -7.3706,0 -10.9992,1.9277 -3.5152,1.9277 -3.5152,7.14382 v 34.81196 z m 42.9185,0 v -59.53185 h 16.7823 v 12.92692 h 0.567 q 0.4536,-2.49467 1.5875,-4.76255 1.1339,-2.38127 2.9482,-4.19558 1.9277,-1.8143 4.5358,-2.83485 2.6081,-1.13394 6.1233,-1.13394 h 2.9482 v 15.64837 h -4.1956 q -7.3706,0 -10.9992,1.9277 -3.5152,1.9277 -3.5152,7.14382 v 34.81196 z"
       id="text1-8-5-4"
       transform="rotate(90)"
       aria-label="errrrrrrrr" />
  </g>
  <g
     inkscape:groupmode="layer"
     id="layer3"
     inkscape:label="bck"
     style="display:none"
     transform="translate(-1e-5,-42.00001)">
    <text
       xml:space="preserve"
       style="font-weight:bold;font-size:113.394px;line-height:1;font-family:Monospace;-inkscape-font-specification:'Monospace Bold';letter-spacing:-2.89263px;word-spacing:0px;opacity:1;fill:#ffffff;stroke-width:93.5764;stroke-linecap:round;stroke-linejoin:round;stroke-dashoffset:3.59055;paint-order:stroke fill markers"
       x="143.34421"
       y="658.2774"
       id="text5"
       transform="translate(-139.09552,231.6951)"><tspan
         sodipodi:role="line"
         id="tspan5"
         x="143.34421"
         y="658.2774"
         style="font-style:normal;font-variant:normal;font-weight:bold;font-stretch:normal;font-family:'IBM Plex Sans';-inkscape-font-specification:'IBM Plex Sans Bold';letter-spacing:-2.89263px;fill:#ffffff;stroke-width:93.5764"
         dx="0">leituras</tspan></text>
    <text
       xml:space="preserve"
       style="font-weight:bold;font-size:113.394px;line-height:1;font-family:Monospace;-inkscape-font-specification:'Monospace Bold';letter-spacing:-2.89263px;word-spacing:0px;opacity:1;fill:#ffffff;stroke-width:93.5764;stroke-linecap:round;stroke-linejoin:round;stroke-dashoffset:3.59055;paint-order:stroke fill markers"
       x="408.03262"
       y="736.18665"
       id="text6"
       transform="translate(-139.09552,231.6951)"><tspan
         sodipodi:role="line"
         id="tspan6"
         x="408.03262"
         y="736.18665"
         style="font-style:normal;font-variant:normal;font-weight:bold;font-stretch:normal;font-family:'IBM Plex Sans';-inkscape-font-specification:'IBM Plex Sans Bold';letter-spacing:-2.89263px;fill:#ffffff;stroke-width:93.5764">que</tspan></text>
    <text
       xml:space="preserve"
       style="font-weight:bold;font-size:113.394px;line-height:1;font-family:Monospace;-inkscape-font-specification:'Monospace Bold';letter-spacing:-2.89263px;word-spacing:0px;opacity:1;fill:#ffffff;stroke-width:93.5764;stroke-linecap:round;stroke-linejoin:round;stroke-dashoffset:3.59055;paint-order:stroke fill markers"
       x="671.58752"
       y="-610.69037"
       id="text7"
       transform="rotate(90,-185.39531,46.299797)"><tspan
         sodipodi:role="line"
         id="tspan7"
         x="671.58752"
         y="-610.69037"
         style="font-style:normal;font-variant:normal;font-weight:bold;font-stretch:normal;font-family:'IBM Plex Sans';-inkscape-font-specification:'IBM Plex Sans Bold';letter-spacing:-2.89263px;fill:#ffffff;stroke-width:93.5764">errrrrrrrr</tspan></text>
  </g>
  <g
     inkscape:groupmode="layer"
     id="layer2"
     inkscape:label="old"
     style="display:none"
     transform="translate(-1e-5,-42.00001)">
    <g
       aria-label="leituras"
       id="text167"
       style="font-weight:bold;font-size:119.236px;font-family:'IBM Plex Sans';-inkscape-font-specification:'IBM Plex Sans Bold';letter-spacing:-4.72603px;display:inline;fill:#ffffff;stroke-width:1.47558"
       transform="translate(-139.09552,231.69509)">
      <path
         d="m 165.31663,657.45264 q -7.86958,0 -11.56589,-3.93479 -3.69632,-3.93479 -3.69632,-11.08895 V 569.218 h 15.26221 v 76.07256 h 8.22728 v 12.16208 z"
         style="font-weight:600;-inkscape-font-specification:'IBM Plex Sans Semi-Bold'"
         id="path1571" />
      <path
         d="m 205.54264,658.88347 q -6.91568,0 -12.40054,-2.26549 -5.36562,-2.38472 -9.18117,-6.55798 -3.69632,-4.29249 -5.72333,-10.25429 -2.02701,-6.08104 -2.02701,-13.59291 0,-7.39263 1.90777,-13.35443 2.02702,-5.9618 5.72333,-10.13506 3.69632,-4.29249 9.06194,-6.55798 5.36562,-2.38472 12.16207,-2.38472 7.2734,0 12.63902,2.50396 5.36562,2.50395 8.82346,6.79645 3.45784,4.2925 5.12715,10.01582 1.78854,5.6041 1.78854,12.04284 v 5.00791 h -41.37489 v 1.55007 q 0,6.79645 3.81555,10.96971 3.81555,4.05403 11.32742,4.05403 5.72333,0 9.30041,-2.38472 3.69631,-2.38472 6.55798,-6.08104 l 8.22728,9.18117 q -3.81555,5.36562 -10.49277,8.46576 -6.55798,2.9809 -15.26221,2.9809 z m -0.23847,-53.6562 q -6.08103,0 -9.65811,4.05402 -3.57708,4.05403 -3.57708,10.49277 v 0.95389 h 25.5165 v -1.07313 q 0,-6.43874 -3.21937,-10.37353 -3.10014,-4.05402 -9.06194,-4.05402 z"
         style="font-weight:600;-inkscape-font-specification:'IBM Plex Sans Semi-Bold'"
         id="path1573" />
      <path
         d="m 249.82268,586.14951 q -4.76944,0 -6.91569,-2.14625 -2.02701,-2.14625 -2.02701,-5.48486 v -2.38472 q 0,-3.3386 2.02701,-5.48485 2.14625,-2.14625 6.91569,-2.14625 4.6502,0 6.79645,2.14625 2.14625,2.14625 2.14625,5.48485 v 2.38472 q 0,3.33861 -2.14625,5.48486 -2.14625,2.14625 -6.79645,2.14625 z m -7.63111,9.06193 h 15.26221 v 62.2412 h -15.26221 z"
         style="font-weight:600;-inkscape-font-specification:'IBM Plex Sans Semi-Bold'"
         id="path1575" />
      <path
         d="m 289.81003,657.45264 q -7.86957,0 -12.04283,-4.05403 -4.05403,-4.17326 -4.05403,-11.80436 V 607.37352 H 264.532 v -12.16208 h 4.76944 q 3.45785,0 4.65021,-1.55006 1.31159,-1.66931 1.31159,-4.88868 v -10.612 h 13.71214 v 17.05074 h 12.75825 v 12.16208 h -12.75825 v 37.91704 h 11.80437 v 12.16208 z"
         style="font-weight:600;-inkscape-font-specification:'IBM Plex Sans Semi-Bold'"
         id="path1577" />
      <path
         d="m 347.4445,647.0791 h -0.59618 q -0.83465,2.38472 -2.26548,4.53097 -1.3116,2.02701 -3.45785,3.69632 -2.02701,1.6693 -5.00791,2.62319 -2.86166,0.95389 -6.67722,0.95389 -9.65811,0 -14.78526,-6.31951 -5.12715,-6.31951 -5.12715,-18.00464 v -39.34788 h 15.26221 v 37.79782 q 0,6.43874 2.50396,9.89658 2.50395,3.33861 7.98881,3.33861 2.26548,0 4.41173,-0.59618 2.26548,-0.59618 3.93479,-1.78854 1.6693,-1.31159 2.74243,-3.10013 1.07312,-1.90778 1.07312,-4.41174 v -41.13642 h 15.26221 v 62.2412 H 347.4445 Z"
         style="font-weight:600;-inkscape-font-specification:'IBM Plex Sans Semi-Bold'"
         id="path1579" />
      <path
         d="m 375.62753,657.45264 v -62.2412 h 15.2622 v 12.87749 h 0.59618 q 0.59618,-2.50395 1.78854,-4.76944 1.3116,-2.38472 3.33861,-4.17326 2.02701,-1.78854 4.76944,-2.86166 2.86167,-1.07313 6.55798,-1.07313 h 3.33861 V 609.639 h -4.76944 q -7.75034,0 -11.68513,2.26548 -3.93479,2.26549 -3.93479,7.39264 v 38.15552 z"
         style="font-weight:600;-inkscape-font-specification:'IBM Plex Sans Semi-Bold'"
         id="path1581" />
      <path
         d="m 462.23628,657.45264 q -5.00791,0 -7.98881,-2.86167 -2.86167,-2.9809 -3.57708,-7.86957 h -0.71542 q -1.55007,6.08103 -6.31951,9.18117 -4.76944,2.9809 -11.80436,2.9809 -9.53888,0 -14.66603,-5.00791 -5.12715,-5.00792 -5.12715,-13.35444 0,-9.65811 6.91569,-14.30832 6.91569,-4.76944 19.67394,-4.76944 h 10.612 v -4.53096 q 0,-5.24639 -2.74242,-8.10805 -2.74243,-2.86167 -8.82347,-2.86167 -5.36562,0 -8.70423,2.38472 -3.21937,2.26549 -5.48485,5.48486 l -9.06194,-8.10805 q 3.45785,-5.36562 9.18117,-8.58499 5.72333,-3.33861 15.14298,-3.33861 12.63901,0 19.19699,5.72333 6.55798,5.72333 6.55798,16.45457 v 29.33205 h 6.20027 v 12.16208 z m -25.27803,-9.65812 q 5.12714,0 8.70422,-2.26548 3.57708,-2.26549 3.57708,-6.67722 v -8.22728 h -9.77735 q -11.9236,0 -11.9236,7.6311 v 2.02701 q 0,3.81555 2.38472,5.72333 2.50396,1.78854 7.03493,1.78854 z"
         style="font-weight:600;-inkscape-font-specification:'IBM Plex Sans Semi-Bold'"
         id="path1583" />
      <path
         d="m 498.76589,658.88347 q -8.9427,0 -15.02374,-2.9809 -6.08103,-3.10014 -10.73124,-8.46576 l 9.30041,-9.06193 q 3.45785,3.93478 7.51187,6.20027 4.17326,2.26548 9.53888,2.26548 5.48486,0 7.86958,-1.90777 2.50395,-1.90778 2.50395,-5.24639 0,-2.74243 -1.78854,-4.29249 -1.6693,-1.66931 -5.84256,-2.26549 l -6.20027,-0.83465 q -10.13506,-1.3116 -15.50068,-5.72333 -5.24639,-4.53097 -5.24639,-13.11596 0,-4.53097 1.66931,-8.10805 1.6693,-3.69631 4.76944,-6.20027 3.10013,-2.62319 7.39263,-3.93479 4.41173,-1.43083 9.77735,-1.43083 4.53097,0 7.98881,0.71542 3.57708,0.59618 6.43875,1.90777 2.86166,1.19236 5.24638,3.10014 2.38472,1.78854 4.6502,4.05402 l -8.9427,8.9427 q -2.74242,-2.86166 -6.55798,-4.76944 -3.81555,-1.90777 -8.34652,-1.90777 -5.00791,0 -7.27339,1.78854 -2.14625,1.78854 -2.14625,4.6502 0,3.10014 1.78854,4.76944 1.90778,1.55007 6.31951,2.26549 l 6.31951,0.83465 q 20.15088,2.86166 20.15088,18.36234 0,4.53097 -1.90778,8.34652 -1.78854,3.69632 -5.12714,6.43875 -3.33861,2.62319 -8.10805,4.17326 -4.65021,1.43083 -10.49277,1.43083 z"
         style="font-weight:600;-inkscape-font-specification:'IBM Plex Sans Semi-Bold'"
         id="path1585" />
    </g>
    <g
       aria-label="que"
       id="text171"
       style="font-weight:bold;font-size:118.842px;font-family:'IBM Plex Sans';-inkscape-font-specification:'IBM Plex Sans Bold';letter-spacing:-4.30804px;display:inline;fill:#ffffff;stroke-width:1.36686"
       transform="translate(-139.09552,231.69509)">
      <path
         d="m 442.0256,727.70859 h -0.59421 q -0.71305,2.49568 -2.25799,4.75368 -1.54495,2.13916 -3.80295,3.80294 -2.13915,1.54495 -4.99136,2.37685 -2.73337,0.95073 -5.70442,0.95073 -11.8842,0 -17.94514,-8.31894 -6.06094,-8.43778 -6.06094,-24.36261 0,-15.92483 6.06094,-24.24377 6.06094,-8.31894 17.94514,-8.31894 6.06094,0 10.69578,3.32758 4.75368,3.32757 6.06094,8.55662 h 0.59421 v -10.45809 h 17.58862 v 86.16045 H 442.0256 Z m -11.52767,-2.37684 q 4.99136,0 8.2001,-2.37684 3.32757,-2.49568 3.32757,-6.77399 v -18.42051 q 0,-4.27832 -3.32757,-6.65516 -3.20874,-2.49568 -8.2001,-2.49568 -4.99137,0 -8.31894,3.56526 -3.20874,3.44642 -3.20874,9.38852 v 10.81462 q 0,5.9421 3.20874,9.50736 3.32757,3.44642 8.31894,3.44642 z"
         id="path1588" />
      <path
         d="m 508.54738,727.70859 h -0.59421 q -0.8319,2.37684 -2.258,4.516 -1.30726,2.13915 -3.44642,3.80294 -2.13916,1.66379 -5.11021,2.61453 -2.85221,0.95073 -6.65515,0.95073 -9.6262,0 -14.61757,-6.29863 -4.87252,-6.41746 -4.87252,-18.30166 v -39.21786 h 17.58862 v 37.67291 q 0,5.70442 2.02031,8.79431 2.02032,3.08989 6.89284,3.08989 2.02031,0 4.04063,-0.59421 2.02031,-0.59421 3.56526,-1.66379 1.54494,-1.18842 2.49568,-2.85221 0.95074,-1.66378 0.95074,-3.92178 v -40.52512 h 17.58861 v 62.39205 h -17.58861 z"
         id="path1590"
         style="display:inline" />
      <path
         d="m 564.25462,739.59279 q -7.13052,0 -12.7161,-2.258 -5.58557,-2.37684 -9.50736,-6.53631 -3.80294,-4.27831 -5.82325,-10.33925 -1.90148,-6.06094 -1.90148,-13.54799 0,-7.3682 1.90148,-13.3103 1.90147,-6.06095 5.58557,-10.33926 3.80294,-4.27831 9.26968,-6.53631 5.46673,-2.37684 12.47841,-2.37684 7.72473,0 13.19146,2.61453 5.58557,2.61452 9.03199,7.01167 3.56526,4.39716 5.11021,10.22042 1.66379,5.70441 1.66379,12.00304 v 5.22905 h -40.04976 v 0.95073 q 0,6.17979 3.32758,9.86389 3.32757,3.56526 10.45809,3.56526 5.46673,0 8.91315,-2.13916 3.44642,-2.258 6.41747,-5.34789 l 8.79431,10.93347 q -4.15947,4.87252 -10.93346,7.60588 -6.65516,2.73337 -15.21178,2.73337 z m -0.35653,-52.29048 q -5.34789,0 -8.43778,3.56526 -2.97105,3.44642 -2.97105,9.26968 v 0.95073 h 21.86693 v -1.06958 q 0,-5.70441 -2.61453,-9.15083 -2.49568,-3.56526 -7.84357,-3.56526 z"
         id="path1592"
         style="display:inline" />
    </g>
    <g
       aria-label="errrrrrrrr"
       transform="rotate(90,-185.39531,46.299799)"
       id="text175"
       style="font-weight:bold;font-size:117.493px;font-family:'IBM Plex Sans';-inkscape-font-specification:'IBM Plex Sans Bold';letter-spacing:-4.43988px;display:inline;fill:#ffffff;stroke-width:1.5812">
      <path
         d="m 704.4733,-606.35955 q -7.04958,0 -12.57175,-2.23237 -5.52217,-2.34986 -9.39944,-6.46212 -3.75978,-4.22974 -5.75716,-10.22189 -1.87989,-5.99214 -1.87989,-13.3942 0,-7.28456 1.87989,-13.15921 1.87989,-5.99215 5.52217,-10.22189 3.75978,-4.22975 9.16446,-6.46212 5.40467,-2.34986 12.33676,-2.34986 7.63704,0 13.04172,2.58485 5.52217,2.58484 8.92947,6.93208 3.52479,4.34724 5.0522,10.1044 1.6449,5.63967 1.6449,11.86679 v 5.1697 h -39.59514 v 0.93994 q 0,6.10964 3.28981,9.75192 3.2898,3.52479 10.33938,3.52479 5.40468,0 8.81197,-2.11488 3.4073,-2.23236 6.34463,-5.28718 l 8.69448,10.80936 q -4.11226,4.81721 -10.80936,7.51955 -6.57961,2.70234 -15.0391,2.70234 z m -0.35248,-51.69692 q -5.28719,0 -8.342,3.52479 -2.93733,3.40729 -2.93733,9.16445 v 0.93994 h 21.61871 v -1.05743 q 0,-5.63967 -2.58484,-9.04696 -2.46736,-3.52479 -7.75454,-3.52479 z"
         id="path1595" />
      <path
         d="m 740.33355,-607.76947 v -61.68382 h 17.38896 v 13.3942 h 0.58747 q 0.46997,-2.58485 1.6449,-4.93471 1.17493,-2.46735 3.05482,-4.34724 1.99738,-1.87989 4.69972,-2.93732 2.70234,-1.17493 6.34462,-1.17493 h 3.05482 v 16.21403 h -4.34724 q -7.63705,0 -11.39682,1.99738 -3.64229,1.99738 -3.64229,7.40206 v 36.07035 z"
         id="path1597" />
      <path
         d="m 783.36076,-607.76947 v -61.68382 h 17.38897 v 13.3942 h 0.58746 q 0.46997,-2.58485 1.6449,-4.93471 1.17493,-2.46735 3.05482,-4.34724 1.99738,-1.87989 4.69972,-2.93732 2.70234,-1.17493 6.34462,-1.17493 h 3.05482 v 16.21403 h -4.34724 q -7.63705,0 -11.39682,1.99738 -3.64228,1.99738 -3.64228,7.40206 v 36.07035 z"
         id="path1599" />
      <path
         d="m 826.38798,-607.76947 v -61.68382 h 17.38896 v 13.3942 h 0.58747 q 0.46997,-2.58485 1.6449,-4.93471 1.17493,-2.46735 3.05482,-4.34724 1.99738,-1.87989 4.69971,-2.93732 2.70234,-1.17493 6.34463,-1.17493 h 3.05481 v 16.21403 h -4.34724 q -7.63704,0 -11.39682,1.99738 -3.64228,1.99738 -3.64228,7.40206 v 36.07035 z"
         id="path1601" />
      <path
         d="m 869.41518,-607.76947 v -61.68382 h 17.38897 v 13.3942 h 0.58746 q 0.46997,-2.58485 1.6449,-4.93471 1.17493,-2.46735 3.05482,-4.34724 1.99738,-1.87989 4.69972,-2.93732 2.70234,-1.17493 6.34462,-1.17493 h 3.05482 v 16.21403 h -4.34724 q -7.63704,0 -11.39682,1.99738 -3.64228,1.99738 -3.64228,7.40206 v 36.07035 z"
         id="path1603" />
      <path
         d="m 912.44239,-607.76947 v -61.68382 h 17.38896 v 13.3942 h 0.58747 q 0.46997,-2.58485 1.6449,-4.93471 1.17493,-2.46735 3.05482,-4.34724 1.99738,-1.87989 4.69972,-2.93732 2.70234,-1.17493 6.34462,-1.17493 h 3.05482 v 16.21403 h -4.34724 q -7.63705,0 -11.39682,1.99738 -3.64229,1.99738 -3.64229,7.40206 v 36.07035 z"
         id="path1605" />
      <path
         d="m 955.4696,-607.76947 v -61.68382 h 17.38896 v 13.3942 h 0.58746 q 0.46998,-2.58485 1.64491,-4.93471 1.17493,-2.46735 3.05481,-4.34724 1.99739,-1.87989 4.69972,-2.93732 2.70234,-1.17493 6.34463,-1.17493 h 3.05481 v 16.21403 h -4.34724 q -7.63704,0 -11.39682,1.99738 -3.64228,1.99738 -3.64228,7.40206 v 36.07035 z"
         id="path1607" />
      <path
         d="m 998.49682,-607.76947 v -61.68382 h 17.38898 v 13.3942 h 0.5874 q 0.47,-2.58485 1.6449,-4.93471 1.175,-2.46735 3.0549,-4.34724 1.9973,-1.87989 4.6997,-2.93732 2.7023,-1.17493 6.3446,-1.17493 h 3.0548 v 16.21403 h -4.3472 q -7.6371,0 -11.3968,1.99738 -3.6423,1.99738 -3.6423,7.40206 v 36.07035 z"
         id="path1609" />
      <path
         d="m 1041.524,-607.76947 v -61.68382 h 17.389 v 13.3942 h 0.5874 q 0.47,-2.58485 1.6449,-4.93471 1.175,-2.46735 3.0549,-4.34724 1.9973,-1.87989 4.6997,-2.93732 2.7023,-1.17493 6.3446,-1.17493 h 3.0548 v 16.21403 h -4.3472 q -7.6371,0 -11.3968,1.99738 -3.6423,1.99738 -3.6423,7.40206 v 36.07035 z"
         id="path1611" />
      <path
         d="m 1084.5512,-607.76947 v -61.68382 h 17.389 v 13.3942 h 0.5875 q 0.4699,-2.58485 1.6449,-4.93471 1.1749,-2.46735 3.0548,-4.34724 1.9974,-1.87989 4.6997,-2.93732 2.7023,-1.17493 6.3446,-1.17493 h 3.0548 v 16.21403 h -4.3472 q -7.637,0 -11.3968,1.99738 -3.6423,1.99738 -3.6423,7.40206 v 36.07035 z"
         id="path1613" />
    </g>
  </g>
</svg>
