<?xml version="1.0" encoding="UTF-8" standalone="no"?>
<!-- Created with Inkscape (http://www.inkscape.org/) -->

<svg
   width="200"
   height="100"
   viewBox="0 0 52.916667 26.458333"
   version="1.1"
   id="svg5"
   inkscape:export-filename="bitmap.svg"
   inkscape:export-xdpi="96"
   inkscape:export-ydpi="96"
   xmlns:inkscape="http://www.inkscape.org/namespaces/inkscape"
   xmlns:sodipodi="http://sodipodi.sourceforge.net/DTD/sodipodi-0.dtd"
   xmlns="http://www.w3.org/2000/svg"
   xmlns:svg="http://www.w3.org/2000/svg">
  <sodipodi:namedview
     id="namedview7"
     pagecolor="#505050"
     bordercolor="#eeeeee"
     borderopacity="1"
     inkscape:showpageshadow="0"
     inkscape:pageopacity="0"
     inkscape:pagecheckerboard="0"
     inkscape:deskcolor="#505050"
     inkscape:document-units="mm"
     showgrid="false"
     showguides="true">
    <sodipodi:guide
       position="17.41946,6.7440827"
       orientation="0,-1"
       id="guide1060"
       inkscape:locked="false" />
    <sodipodi:guide
       position="16.420741,12.094736"
       orientation="1,0"
       id="guide1131"
       inkscape:locked="false" />
    <sodipodi:guide
       position="17.695078,10.947833"
       orientation="1,0"
       id="guide1133"
       inkscape:locked="false" />
  </sodipodi:namedview>
  <defs
     id="defs2" />
  <g
     inkscape:label="Layer 1"
     inkscape:groupmode="layer"
     id="layer1">
    <text
       xml:space="preserve"
       style="font-style:normal;font-variant:normal;font-weight:bold;font-stretch:normal;font-size:36.3293px;font-family:'IBM Plex Sans';-inkscape-font-specification:'IBM Plex Sans Bold';fill:#222222;stroke-width:0.446962"
       x="-9.5296974"
       y="-0.46866801"
       id="text236"
       transform="rotate(90)"><tspan
         sodipodi:role="line"
         id="tspan234"
         style="fill:#ffffff;stroke-width:0.446962"
         x="-9.5296974"
         y="-0.46866801">er</tspan></text>
    <text
       xml:space="preserve"
       style="font-style:normal;font-variant:normal;font-weight:normal;font-stretch:normal;font-size:6.94985px;font-family:'IBM Plex Sans';-inkscape-font-specification:'IBM Plex Sans';fill:#ffffff;stroke-width:0.298237"
       x="20.545765"
       y="18.655916"
       id="text1054"><tspan
         sodipodi:role="line"
         id="tspan1052"
         style="font-size:6.94985px;stroke-width:0.298237"
         x="20.545765"
         y="18.655916">leituras</tspan></text>
    <g
       aria-label="queer"
       id="text1058"
       style="font-size:5.64444px;font-family:'IBM Plex Sans';-inkscape-font-specification:'IBM Plex Sans';fill:#ffffff;stroke-width:0.211658"
       transform="matrix(1.2312738,0,0,1.2312738,-0.65911533,0.59839863)">
      <path
         id="path1143"
         d="m 30.576652,19.714251 v -2.912532 h 0.451555 v 0.536222 h 0.02822 q 0.07902,-0.208844 0.282222,-0.372533 0.2032,-0.163689 0.5588,-0.163689 h 0.174977 v 0.451556 H 31.80714 q -0.366889,0 -0.575733,0.141111 -0.2032,0.135466 -0.2032,0.344311 v 1.975554 z m -2.003775,0.06773 q -0.299155,0 -0.541866,-0.107245 -0.237067,-0.107244 -0.412044,-0.304799 -0.169333,-0.2032 -0.265289,-0.479778 -0.09031,-0.282222 -0.09031,-0.632177 0,-0.344311 0.09031,-0.626533 0.09596,-0.282222 0.265289,-0.479777 0.174977,-0.2032 0.412044,-0.310444 0.242711,-0.107245 0.541866,-0.107245 0.293511,0 0.524933,0.107245 0.231422,0.107244 0.395111,0.299155 0.163689,0.186266 0.248355,0.445911 0.09031,0.259644 0.09031,0.570088 v 0.214489 H 27.7375 v 0.135466 q 0,0.186267 0.05644,0.349956 0.06209,0.158044 0.169334,0.276577 0.112888,0.118533 0.270933,0.186267 0.163689,0.06773 0.366888,0.06773 0.276578,0 0.479778,-0.129822 0.208844,-0.129822 0.321733,-0.372533 l 0.321733,0.231422 q -0.141111,0.299155 -0.440266,0.485422 -0.299156,0.180622 -0.7112,0.180622 z m 0,-2.66982 q -0.186266,0 -0.338666,0.06773 -0.1524,0.06209 -0.265289,0.180622 -0.107244,0.118533 -0.169333,0.282222 -0.06209,0.158044 -0.06209,0.349955 v 0.03951 h 1.608665 v -0.06209 q 0,-0.389467 -0.214488,-0.620889 -0.208845,-0.237066 -0.5588,-0.237066 z m -3.098797,2.66982 q -0.299155,0 -0.541866,-0.107245 -0.237066,-0.107244 -0.412044,-0.304799 -0.169333,-0.2032 -0.265289,-0.479778 -0.09031,-0.282222 -0.09031,-0.632177 0,-0.344311 0.09031,-0.626533 0.09596,-0.282222 0.265289,-0.479777 0.174978,-0.2032 0.412044,-0.310444 0.242711,-0.107245 0.541866,-0.107245 0.293511,0 0.524933,0.107245 0.231422,0.107244 0.395111,0.299155 0.163689,0.186266 0.248355,0.445911 0.09031,0.259644 0.09031,0.570088 v 0.214489 h -2.094087 v 0.135466 q 0,0.186267 0.05645,0.349956 0.06209,0.158044 0.169333,0.276577 0.112889,0.118533 0.270933,0.186267 0.163689,0.06773 0.366889,0.06773 0.276577,0 0.479777,-0.129822 0.208844,-0.129822 0.321733,-0.372533 l 0.321733,0.231422 q -0.141111,0.299155 -0.440266,0.485422 -0.299156,0.180622 -0.7112,0.180622 z m 0,-2.66982 q -0.186266,0 -0.338666,0.06773 -0.1524,0.06209 -0.265289,0.180622 -0.107244,0.118533 -0.169333,0.282222 -0.06209,0.158044 -0.06209,0.349955 v 0.03951 h 1.608666 v -0.06209 q 0,-0.389467 -0.214489,-0.620889 -0.208844,-0.237066 -0.5588,-0.237066 z m -2.506135,2.127954 h -0.02258 q -0.04516,0.1016 -0.112889,0.203199 -0.06209,0.09596 -0.158044,0.174978 -0.09596,0.07338 -0.231422,0.118533 -0.135467,0.04516 -0.316089,0.04516 -0.451555,0 -0.716844,-0.287867 -0.265289,-0.29351 -0.265289,-0.824088 v -1.86831 h 0.451556 v 1.789288 q 0,0.784577 0.666044,0.784577 0.135466,0 0.259644,-0.03387 0.129822,-0.03387 0.225777,-0.1016 0.1016,-0.06773 0.158045,-0.169334 0.06209,-0.107244 0.06209,-0.253999 V 16.801719 H 23.4195 v 2.912532 h -0.451555 z m -3.206042,0 h -0.02258 q -0.265288,0.541866 -0.85231,0.541866 -0.270933,0 -0.491067,-0.107245 -0.220133,-0.107244 -0.378177,-0.304799 -0.1524,-0.197556 -0.237067,-0.479778 -0.07902,-0.282222 -0.07902,-0.632177 0,-0.349955 0.07902,-0.632177 0.08467,-0.282222 0.237067,-0.479778 0.158044,-0.197555 0.378177,-0.304799 0.220134,-0.107245 0.491067,-0.107245 0.3048,0 0.519288,0.135467 0.220133,0.129822 0.333022,0.406399 h 0.02258 v -0.474133 h 0.451555 v 4.04142 h -0.451555 z m -0.750711,0.135466 q 0.1524,0 0.287867,-0.03951 0.141111,-0.03951 0.242711,-0.112889 0.1016,-0.07902 0.158044,-0.186266 0.06209,-0.112889 0.06209,-0.254 v -1.083733 q 0,-0.118533 -0.06209,-0.220133 -0.05644,-0.107244 -0.158044,-0.180622 -0.1016,-0.07338 -0.242711,-0.112889 -0.135467,-0.04516 -0.287867,-0.04516 -0.383822,0 -0.603955,0.242711 -0.220133,0.237066 -0.220133,0.626533 v 0.49671 q 0,0.389467 0.220133,0.632178 0.220133,0.237066 0.603955,0.237066 z" />
    </g>
  </g>
</svg>
