<?xml version="1.0" encoding="UTF-8" standalone="no"?>
<!-- Created with Inkscape (http://www.inkscape.org/) -->

<svg
   width="200"
   height="100"
   viewBox="0 0 52.916667 26.458333"
   version="1.1"
   id="svg5"
   inkscape:export-filename="top bar.svg"
   inkscape:export-xdpi="96"
   inkscape:export-ydpi="96"
   sodipodi:docname="top bar.svg"
   xmlns:inkscape="http://www.inkscape.org/namespaces/inkscape"
   xmlns:sodipodi="http://sodipodi.sourceforge.net/DTD/sodipodi-0.dtd"
   xmlns="http://www.w3.org/2000/svg"
   xmlns:svg="http://www.w3.org/2000/svg">
  <sodipodi:namedview
     id="namedview7"
     pagecolor="#505050"
     bordercolor="#eeeeee"
     borderopacity="1"
     inkscape:showpageshadow="0"
     inkscape:pageopacity="0"
     inkscape:pagecheckerboard="0"
     inkscape:deskcolor="#505050"
     inkscape:document-units="mm"
     showgrid="false"
     showguides="true">
    <sodipodi:guide
       position="17.41946,6.7440827"
       orientation="0,-1"
       id="guide1060"
       inkscape:locked="false" />
    <sodipodi:guide
       position="16.420741,12.094736"
       orientation="1,0"
       id="guide1131"
       inkscape:locked="false" />
    <sodipodi:guide
       position="17.695078,10.947833"
       orientation="1,0"
       id="guide1133"
       inkscape:locked="false" />
  </sodipodi:namedview>
  <defs
     id="defs2" />
  <g
     inkscape:label="Layer 1"
     inkscape:groupmode="layer"
     id="layer1">
    <g
       aria-label="er"
       transform="matrix(0,0.79614978,-0.79614978,0,0.28017241,6.741548)"
       id="text236"
       style="font-weight:bold;font-size:36.3293px;font-family:'IBM Plex Sans';-inkscape-font-specification:'IBM Plex Sans Bold';fill:#222222;fill-opacity:1;stroke-width:0.446962">
      <path
         d="m 0.93314096,-0.03271641 q -2.17975796,0 -3.88723506,-0.6902567 -1.7074771,-0.72658599 -2.906344,-1.99811149 -1.1625376,-1.3078548 -1.7801357,-3.1606491 -0.5812688,-1.8527943 -0.5812688,-4.1415403 0,-2.252416 0.5812688,-4.068881 0.5812688,-1.852795 1.7074771,-3.16065 1.1625376,-1.307854 2.8336854,-1.998111 1.6711478,-0.726586 3.81457646,-0.726586 2.36140454,0 4.03255234,0.799245 1.707477,0.799244 2.7610267,2.143428 1.089879,1.344184 1.5621599,3.12432 0.5086102,1.743806 0.5086102,3.669259 v 1.5984895 h -12.242974 v 0.2906344 q 0,1.8891236 1.0172204,3.0153319 1.01722036,1.089879 3.1969784,1.089879 1.6711478,0 2.7246975,-0.6539274 1.0535497,-0.6902567 1.9617821,-1.6348185 l 2.6883682,3.3422956 q -1.2715255,1.4895013 -3.3422955,2.32507519 -2.0344408,0.8355739 -4.65015044,0.8355739 z M 0.82415306,-16.017608 q -1.6348185,0 -2.57938026,1.089879 -0.9082325,1.053549 -0.9082325,2.833685 v 0.290634 h 6.6845912 v -0.326963 q 0,-1.743807 -0.7992446,-2.797356 -0.7629153,-1.089879 -2.39773384,-1.089879 z"
         style="fill:#222222;fill-opacity:1"
         id="path1301" />
      <path
         d="M 13.3941,-0.46866801 V -19.54155 h 5.376737 v 4.14154 h 0.181646 q 0.145317,-0.799245 0.50861,-1.525831 0.363293,-0.762915 0.944562,-1.344184 0.617598,-0.581269 1.453172,-0.908232 0.835574,-0.363293 1.961782,-0.363293 h 0.944562 v 5.013443 h -1.344184 q -2.361404,0 -3.523942,0.617598 -1.126208,0.617598 -1.126208,2.288746 v 11.15309499 z"
         style="fill:#222222;fill-opacity:1"
         id="path1303" />
      <path
         d="M 18.770837,-4.610208 V 14.462674 H 13.3941 v -4.14154 h -0.181646 q -0.145317,0.799245 -0.50861,1.525831 -0.363293,0.762915 -0.944562,1.344184 -0.617598,0.581269 -1.453172,0.908232 -0.8355744,0.363293 -1.961783,0.363293 H 7.3997646 V 9.449231 h 1.3441846 q 2.3614048,0 3.5239428,-0.617598 Q 13.3941,8.214035 13.3941,6.542887 V -4.610208 Z"
         style="fill:#222222;fill-opacity:1"
         id="path1" />
    </g>
    <g
       aria-label="leituras"
       id="text1054"
       style="font-size:6.94985px;font-family:'IBM Plex Sans';-inkscape-font-specification:'IBM Plex Sans';display:none;fill:#222222;fill-opacity:1;stroke-width:0.298237"
       transform="matrix(1.0532952,0,0,1.0532952,-0.53091033,0.43818422)">
      <path
         d="m 21.727239,18.655916 q -0.291893,0 -0.44479,-0.159846 -0.145947,-0.166797 -0.145947,-0.416991 v -4.566052 h 0.555988 v 4.6564 h 0.528189 v 0.486489 z"
         id="path1306"
         style="fill:#222222;fill-opacity:1" />
      <path
         d="m 24.375128,18.739314 q -0.368342,0 -0.667186,-0.132047 -0.291893,-0.132047 -0.507339,-0.375292 -0.208495,-0.250194 -0.326643,-0.590737 -0.111197,-0.347492 -0.111197,-0.778383 0,-0.423941 0.111197,-0.771433 0.118148,-0.347493 0.326643,-0.590738 0.215446,-0.250194 0.507339,-0.382241 0.298844,-0.132048 0.667186,-0.132048 0.361392,0 0.646336,0.132048 0.284944,0.132047 0.486489,0.368342 0.201546,0.229345 0.305794,0.549038 0.111197,0.319693 0.111197,0.701935 v 0.264094 H 23.34655 v 0.166796 q 0,0.229345 0.0695,0.430891 0.07645,0.194596 0.208495,0.340543 0.138997,0.145947 0.333593,0.229345 0.201545,0.0834 0.45174,0.0834 0.340543,0 0.590737,-0.159847 0.257145,-0.159846 0.396142,-0.45869 l 0.396141,0.284944 q -0.173746,0.368342 -0.542088,0.597687 -0.368342,0.222395 -0.875681,0.222395 z m 0,-3.287279 q -0.229345,0 -0.416991,0.0834 -0.187646,0.07645 -0.326643,0.222395 -0.132047,0.145947 -0.208496,0.347492 -0.07645,0.194596 -0.07645,0.430891 v 0.04865 h 1.980707 v -0.07645 q 0,-0.47954 -0.264094,-0.764484 -0.257144,-0.291894 -0.688035,-0.291894 z"
         id="path1308"
         style="fill:#222222;fill-opacity:1" />
      <path
         d="m 27.120317,14.228862 q -0.180696,0 -0.264094,-0.0834 -0.07645,-0.09035 -0.07645,-0.229346 v -0.09035 q 0,-0.138997 0.07645,-0.222395 0.0834,-0.09035 0.264094,-0.09035 0.180696,0 0.257145,0.09035 0.0834,0.0834 0.0834,0.222395 v 0.09035 q 0,0.138997 -0.0834,0.229346 -0.07645,0.0834 -0.257145,0.0834 z m -0.277994,0.840932 h 0.555988 v 3.586122 h -0.555988 z"
         id="path1310"
         style="fill:#222222;fill-opacity:1" />
      <path
         d="m 29.372069,18.655916 q -0.291894,0 -0.444791,-0.159846 -0.145947,-0.166797 -0.145947,-0.430891 v -2.508896 h -0.590737 v -0.486489 h 0.333593 q 0.180696,0 0.243245,-0.0695 0.0695,-0.07645 0.0695,-0.257144 v -0.667186 h 0.500389 v 0.993829 h 0.785333 v 0.486489 h -0.785333 v 2.613144 h 0.729735 v 0.486489 z"
         id="path1312"
         style="fill:#222222;fill-opacity:1" />
      <path
         d="m 33.229234,18.072129 h -0.0278 q -0.0556,0.125097 -0.138997,0.250194 -0.07645,0.118148 -0.194596,0.215446 -0.118147,0.09035 -0.284944,0.145947 -0.166796,0.0556 -0.389191,0.0556 -0.555988,0 -0.882631,-0.354442 -0.326643,-0.361392 -0.326643,-1.014678 v -2.3004 h 0.555988 v 2.203102 q 0,0.966029 0.820082,0.966029 0.166797,0 0.319693,-0.0417 0.159847,-0.0417 0.277994,-0.125097 0.125098,-0.0834 0.194596,-0.208496 0.07645,-0.132047 0.07645,-0.312743 v -2.481096 h 0.555988 v 3.586122 h -0.555988 z"
         id="path1314"
         style="fill:#222222;fill-opacity:1" />
      <path
         d="m 34.966702,18.655916 v -3.586122 h 0.555988 v 0.660235 h 0.03475 q 0.0973,-0.257144 0.347492,-0.45869 0.250195,-0.201545 0.688035,-0.201545 h 0.215446 v 0.555988 H 36.48177 q -0.451741,0 -0.708885,0.173746 -0.250195,0.166796 -0.250195,0.423941 v 2.432447 z"
         id="path1316"
         style="fill:#222222;fill-opacity:1" />
      <path
         d="m 40.095697,18.655916 q -0.312744,0 -0.451741,-0.166796 -0.132047,-0.166797 -0.166796,-0.416991 h -0.03475 q -0.118148,0.333593 -0.389192,0.500389 -0.271044,0.166796 -0.646336,0.166796 -0.569888,0 -0.889581,-0.291893 -0.312743,-0.291894 -0.312743,-0.792283 0,-0.507339 0.368342,-0.778383 0.375292,-0.271045 1.160625,-0.271045 h 0.708885 v -0.354442 q 0,-0.382242 -0.208496,-0.583787 -0.208495,-0.201546 -0.639386,-0.201546 -0.326643,0 -0.549038,0.145947 -0.215446,0.145947 -0.361392,0.389191 L 37.350506,15.68833 q 0.145947,-0.291893 0.46564,-0.493439 0.319693,-0.208496 0.806182,-0.208496 0.653286,0 1.014678,0.319693 0.361393,0.319694 0.361393,0.889581 v 1.973758 h 0.410041 v 0.486489 z m -1.598466,-0.389191 q 0.208496,0 0.382242,-0.04865 0.173746,-0.04865 0.298843,-0.138997 0.125098,-0.09035 0.194596,-0.208496 0.0695,-0.118147 0.0695,-0.257144 V 17.0227 h -0.736684 q -0.47954,0 -0.701935,0.138997 -0.215446,0.138997 -0.215446,0.403092 v 0.145947 q 0,0.264094 0.187646,0.410041 0.194596,0.145947 0.521239,0.145947 z"
         id="path1318"
         style="fill:#222222;fill-opacity:1" />
      <path
         d="m 42.277953,18.739314 q -0.500389,0 -0.840932,-0.187646 -0.333592,-0.194595 -0.576837,-0.514288 l 0.396141,-0.319694 q 0.208496,0.264095 0.46564,0.410042 0.257145,0.138997 0.597687,0.138997 0.354443,0 0.549038,-0.152897 0.201546,-0.152897 0.201546,-0.430891 0,-0.208495 -0.138997,-0.354442 -0.132047,-0.152897 -0.486489,-0.208496 l -0.284944,-0.0417 q -0.250195,-0.03475 -0.45869,-0.104248 -0.208496,-0.07645 -0.368342,-0.194595 -0.152897,-0.125098 -0.243245,-0.305794 -0.0834,-0.180696 -0.0834,-0.43089 0,-0.264095 0.0973,-0.458691 0.0973,-0.201545 0.264094,-0.333592 0.173746,-0.132047 0.410041,-0.194596 0.236295,-0.0695 0.507339,-0.0695 0.437841,0 0.729734,0.152897 0.298844,0.152897 0.521239,0.423941 l -0.368342,0.333593 q -0.118147,-0.166797 -0.347493,-0.298844 -0.229345,-0.138997 -0.576837,-0.138997 -0.347493,0 -0.528189,0.152897 -0.173746,0.145947 -0.173746,0.403091 0,0.264094 0.173746,0.382242 0.180696,0.118147 0.514289,0.173746 l 0.277994,0.0417 q 0.597687,0.09035 0.847882,0.347493 0.250195,0.250194 0.250195,0.660236 0,0.521238 -0.354443,0.820082 -0.354442,0.298843 -0.972979,0.298844 z"
         id="path1320"
         style="fill:#222222;fill-opacity:1" />
    </g>
    <g
       aria-label="queer"
       id="text1058"
       style="font-size:5.64444px;font-family:'IBM Plex Sans';-inkscape-font-specification:'IBM Plex Sans';display:none;fill:#222222;fill-opacity:1;stroke-width:0.211658"
       transform="matrix(1.2968947,0,0,1.2968947,-1.2251533,1.0684746)">
      <path
         id="path1143"
         d="m 30.576652,19.714251 v -2.912532 h 0.451555 v 0.536222 h 0.02822 q 0.07902,-0.208844 0.282222,-0.372533 0.2032,-0.163689 0.5588,-0.163689 h 0.174977 v 0.451556 H 31.80714 q -0.366889,0 -0.575733,0.141111 -0.2032,0.135466 -0.2032,0.344311 v 1.975554 z m -2.003775,0.06773 q -0.299155,0 -0.541866,-0.107245 -0.237067,-0.107244 -0.412044,-0.304799 -0.169333,-0.2032 -0.265289,-0.479778 -0.09031,-0.282222 -0.09031,-0.632177 0,-0.344311 0.09031,-0.626533 0.09596,-0.282222 0.265289,-0.479777 0.174977,-0.2032 0.412044,-0.310444 0.242711,-0.107245 0.541866,-0.107245 0.293511,0 0.524933,0.107245 0.231422,0.107244 0.395111,0.299155 0.163689,0.186266 0.248355,0.445911 0.09031,0.259644 0.09031,0.570088 v 0.214489 H 27.7375 v 0.135466 q 0,0.186267 0.05644,0.349956 0.06209,0.158044 0.169334,0.276577 0.112888,0.118533 0.270933,0.186267 0.163689,0.06773 0.366888,0.06773 0.276578,0 0.479778,-0.129822 0.208844,-0.129822 0.321733,-0.372533 l 0.321733,0.231422 q -0.141111,0.299155 -0.440266,0.485422 -0.299156,0.180622 -0.7112,0.180622 z m 0,-2.66982 q -0.186266,0 -0.338666,0.06773 -0.1524,0.06209 -0.265289,0.180622 -0.107244,0.118533 -0.169333,0.282222 -0.06209,0.158044 -0.06209,0.349955 v 0.03951 h 1.608665 v -0.06209 q 0,-0.389467 -0.214488,-0.620889 -0.208845,-0.237066 -0.5588,-0.237066 z m -3.098797,2.66982 q -0.299155,0 -0.541866,-0.107245 -0.237066,-0.107244 -0.412044,-0.304799 -0.169333,-0.2032 -0.265289,-0.479778 -0.09031,-0.282222 -0.09031,-0.632177 0,-0.344311 0.09031,-0.626533 0.09596,-0.282222 0.265289,-0.479777 0.174978,-0.2032 0.412044,-0.310444 0.242711,-0.107245 0.541866,-0.107245 0.293511,0 0.524933,0.107245 0.231422,0.107244 0.395111,0.299155 0.163689,0.186266 0.248355,0.445911 0.09031,0.259644 0.09031,0.570088 v 0.214489 h -2.094087 v 0.135466 q 0,0.186267 0.05645,0.349956 0.06209,0.158044 0.169333,0.276577 0.112889,0.118533 0.270933,0.186267 0.163689,0.06773 0.366889,0.06773 0.276577,0 0.479777,-0.129822 0.208844,-0.129822 0.321733,-0.372533 l 0.321733,0.231422 q -0.141111,0.299155 -0.440266,0.485422 -0.299156,0.180622 -0.7112,0.180622 z m 0,-2.66982 q -0.186266,0 -0.338666,0.06773 -0.1524,0.06209 -0.265289,0.180622 -0.107244,0.118533 -0.169333,0.282222 -0.06209,0.158044 -0.06209,0.349955 v 0.03951 h 1.608666 v -0.06209 q 0,-0.389467 -0.214489,-0.620889 -0.208844,-0.237066 -0.5588,-0.237066 z m -2.506135,2.127954 h -0.02258 q -0.04516,0.1016 -0.112889,0.203199 -0.06209,0.09596 -0.158044,0.174978 -0.09596,0.07338 -0.231422,0.118533 -0.135467,0.04516 -0.316089,0.04516 -0.451555,0 -0.716844,-0.287867 -0.265289,-0.29351 -0.265289,-0.824088 v -1.86831 h 0.451556 v 1.789288 q 0,0.784577 0.666044,0.784577 0.135466,0 0.259644,-0.03387 0.129822,-0.03387 0.225777,-0.1016 0.1016,-0.06773 0.158045,-0.169334 0.06209,-0.107244 0.06209,-0.253999 V 16.801719 H 23.4195 v 2.912532 h -0.451555 z m -3.206042,0 h -0.02258 q -0.265288,0.541866 -0.85231,0.541866 -0.270933,0 -0.491067,-0.107245 -0.220133,-0.107244 -0.378177,-0.304799 -0.1524,-0.197556 -0.237067,-0.479778 -0.07902,-0.282222 -0.07902,-0.632177 0,-0.349955 0.07902,-0.632177 0.08467,-0.282222 0.237067,-0.479778 0.158044,-0.197555 0.378177,-0.304799 0.220134,-0.107245 0.491067,-0.107245 0.3048,0 0.519288,0.135467 0.220133,0.129822 0.333022,0.406399 h 0.02258 v -0.474133 h 0.451555 v 4.04142 h -0.451555 z m -0.750711,0.135466 q 0.1524,0 0.287867,-0.03951 0.141111,-0.03951 0.242711,-0.112889 0.1016,-0.07902 0.158044,-0.186266 0.06209,-0.112889 0.06209,-0.254 v -1.083733 q 0,-0.118533 -0.06209,-0.220133 -0.05644,-0.107244 -0.158044,-0.180622 -0.1016,-0.07338 -0.242711,-0.112889 -0.135467,-0.04516 -0.287867,-0.04516 -0.383822,0 -0.603955,0.242711 -0.220133,0.237066 -0.220133,0.626533 v 0.49671 q 0,0.389467 0.220133,0.632178 0.220133,0.237066 0.603955,0.237066 z"
         style="fill:#222222;fill-opacity:1" />
    </g>
  </g>
</svg>
