<?xml version="1.0" encoding="UTF-8" standalone="no"?>
<!-- Created with Inkscape (http://www.inkscape.org/) -->

<svg
   width="24.742785mm"
   height="14.058911mm"
   viewBox="0 0 24.742785 14.058911"
   version="1.1"
   id="svg1"
   sodipodi:docname="logo-gefi.svg"
   inkscape:export-filename="logo-gefi.svg"
   inkscape:export-xdpi="96"
   inkscape:export-ydpi="96"
   xmlns:inkscape="http://www.inkscape.org/namespaces/inkscape"
   xmlns:sodipodi="http://sodipodi.sourceforge.net/DTD/sodipodi-0.dtd"
   xmlns="http://www.w3.org/2000/svg"
   xmlns:svg="http://www.w3.org/2000/svg">
  <sodipodi:namedview
     id="namedview1"
     pagecolor="#505050"
     bordercolor="#eeeeee"
     borderopacity="1"
     inkscape:showpageshadow="0"
     inkscape:pageopacity="0"
     inkscape:pagecheckerboard="0"
     inkscape:deskcolor="#505050"
     inkscape:document-units="mm"
     showguides="true"
     inkscape:lockguides="false">
    <sodipodi:guide
       position="12.36834,14.058913"
       orientation="1,0"
       id="guide1"
       inkscape:locked="false" />
    <sodipodi:guide
       position="3e-06,7.0305457"
       orientation="0,-1"
       id="guide2"
       inkscape:locked="false" />
  </sodipodi:namedview>
  <defs
     id="defs1" />
  <g
     inkscape:label="Layer 1"
     inkscape:groupmode="layer"
     id="layer1"
     transform="translate(-70.593245,-62.084188)">
    <path
       style="font-style:italic;font-weight:bold;font-size:14.4639px;line-height:1;font-family:'IBM Plex Serif';-inkscape-font-specification:'IBM Plex Serif Bold Italic';letter-spacing:0.0264583px;fill:#222222;stroke:#ff0000;stroke-width:0;stroke-linecap:round;stroke-linejoin:round;stroke-opacity:0"
       d="m 73.818695,76.143098 q -0.911226,0 -1.533174,-0.130175 -0.607483,-0.115711 -0.983545,-0.318205 -0.390525,-0.202495 -0.549628,-0.477309 -0.159103,-0.26035 -0.159103,-0.564092 0,-0.318206 0.173567,-0.578556 0.173567,-0.245887 0.462845,-0.448381 0.289278,-0.188031 0.665339,-0.33267 0.390525,-0.144639 0.824442,-0.26035 l 0.02893,-0.159103 q -0.376061,-0.202494 -0.535164,-0.462845 -0.144639,-0.26035 -0.144639,-0.59302 0,-0.332669 0.130175,-0.593019 0.130175,-0.260351 0.347134,-0.448381 0.216958,-0.202495 0.506236,-0.33267 0.289278,-0.144639 0.607484,-0.231422 l 0.02893,-0.159103 q -0.419453,-0.231423 -0.694267,-0.650876 -0.274815,-0.419453 -0.274815,-1.041401 0,-0.708731 0.289278,-1.272823 0.289278,-0.564092 0.781051,-0.954617 0.506236,-0.390525 1.171576,-0.59302 0.679803,-0.216958 1.431926,-0.216958 0.679803,0 1.214967,0.231422 0.202495,-0.694267 0.578556,-1.11372 0.390526,-0.419453 0.940154,-0.419453 0.419453,0 0.665339,0.202494 0.245887,0.202495 0.245887,0.564092 0,0.404989 -0.245887,0.679804 -0.245886,0.274814 -0.607483,0.274814 -0.607484,0 -0.766587,-0.636412 h -0.101247 l -0.260351,0.694267 q 0.33267,0.274814 0.520701,0.650876 0.202494,0.361597 0.202494,0.867834 0,0.708731 -0.289278,1.272823 -0.289278,0.549628 -0.795514,0.940153 -0.491773,0.390526 -1.157112,0.607484 -0.665339,0.202495 -1.417462,0.202495 -0.202495,0 -0.376062,-0.02893 -0.159103,-0.02893 -0.318205,-0.05786 -0.33267,0.07232 -0.520701,0.202495 -0.188031,0.115711 -0.188031,0.33267 0,0.231422 0.173567,0.347133 0.188031,0.101247 0.477309,0.202495 l 1.214968,0.390525 q 0.650875,0.216959 1.099256,0.419453 0.462845,0.202495 0.752123,0.433917 0.289278,0.231423 0.419453,0.520701 0.130175,0.289278 0.130175,0.665339 0,0.650875 -0.33267,1.099256 -0.33267,0.462845 -0.911225,0.737659 -0.564093,0.289278 -1.330679,0.404989 -0.752123,0.130175 -1.591029,0.130175 z m 1.504245,-6.508754 q 0.274814,0 0.462845,-0.115712 0.202495,-0.115711 0.33267,-0.303741 0.144639,-0.202495 0.231422,-0.448381 0.101248,-0.260351 0.173567,-0.535165 0.159103,-0.607483 0.231422,-0.983545 0.08678,-0.376061 0.08678,-0.549628 0,-0.303742 -0.159103,-0.477309 -0.159103,-0.18803 -0.506237,-0.18803 -0.274814,0 -0.477308,0.115711 -0.188031,0.115711 -0.33267,0.318206 -0.130175,0.18803 -0.231422,0.44838 -0.08678,0.245887 -0.159103,0.520701 -0.159103,0.607484 -0.245887,0.983545 -0.07232,0.376061 -0.07232,0.549628 0,0.303742 0.159103,0.491773 0.159103,0.173567 0.506236,0.173567 z m -1.287287,5.915735 q 0.419453,0 0.795515,-0.05786 0.376061,-0.05786 0.650875,-0.188031 0.274814,-0.130175 0.433917,-0.332669 0.159103,-0.188031 0.159103,-0.462845 0,-0.376062 -0.245886,-0.520701 -0.245886,-0.130175 -0.723195,-0.289278 L 73.35585,73.149071 q -0.564092,0.245887 -0.954617,0.564092 -0.390526,0.318206 -0.390526,0.766587 0,0.491773 0.448381,0.781051 0.462845,0.289278 1.576565,0.289278 z m 7.721241,-2.29976 q -1.171576,0 -1.721204,-0.66534 -0.549628,-0.679803 -0.549628,-1.880307 0,-0.85337 0.245886,-1.793523 0.26035,-0.954618 0.781051,-1.750132 0.5207,-0.795515 1.330679,-1.316215 0.824442,-0.5207 1.952626,-0.5207 0.477309,0 0.882298,0.08678 0.419453,0.08678 0.708731,0.289278 0.303742,0.188031 0.477309,0.491772 0.173567,0.289278 0.173567,0.708732 0,0.332669 -0.173567,0.737658 -0.173567,0.390526 -0.636412,0.752123 -0.462845,0.347134 -1.272823,0.621948 -0.809978,0.26035 -2.097265,0.33267 -0.115712,0.506236 -0.159103,0.911225 -0.04339,0.404989 -0.04339,0.708731 0,0.621948 0.231422,0.882298 0.231423,0.26035 0.650876,0.26035 0.665339,0 1.214967,-0.535164 0.549629,-0.549628 1.041401,-1.533173 l 0.564092,0.245886 q -0.332669,0.694267 -0.679803,1.243895 -0.347134,0.549629 -0.781051,0.940154 -0.419453,0.376061 -0.954617,0.578556 -0.5207,0.202495 -1.18604,0.202495 z m 0.245887,-4.498273 q 0.679803,-0.101248 1.11372,-0.289278 0.448381,-0.202495 0.708731,-0.462845 0.26035,-0.274814 0.361597,-0.59302 0.115712,-0.318206 0.115712,-0.665339 0,-0.303742 -0.159103,-0.477309 -0.144639,-0.173567 -0.448381,-0.173567 -0.303742,0 -0.535165,0.144639 -0.216958,0.130175 -0.404989,0.448381 -0.18803,0.303742 -0.376061,0.809978 -0.173567,0.506237 -0.376061,1.25836 z m 3.121734,7.391052 q -0.838906,0 -1.272823,-0.347133 -0.433917,-0.347134 -0.433917,-0.882298 0,-0.376061 0.274814,-0.694267 0.274814,-0.303742 0.737659,-0.303742 0.390525,0 0.636411,0.231422 0.231422,0.231423 0.231422,0.578556 0,0.289278 -0.173566,0.477309 -0.173567,0.202495 -0.404989,0.318206 l 0.115711,0.130175 q 0.477308,0 0.795514,-0.26035 0.318206,-0.260351 0.491773,-0.940154 l 2.010482,-8.041928 h -1.214968 l 0.231423,-0.911226 h 1.229431 l 0.101247,-0.433917 q 0.188031,-0.795514 0.578556,-1.359606 0.390526,-0.578556 0.911226,-0.92569 0.535164,-0.361597 1.157112,-0.5207 0.621948,-0.173567 1.272823,-0.173567 1.258359,0 1.865843,0.390525 0.607484,0.390526 0.607484,0.92569 0,0.462845 -0.303742,0.824442 -0.303742,0.347134 -0.867834,0.347134 -0.462845,0 -0.708731,-0.245887 -0.231422,-0.26035 -0.231422,-0.636411 0,-0.33267 0.18803,-0.578556 0.202495,-0.26035 0.433917,-0.376062 l -0.101247,-0.115711 q -0.05786,-0.02893 -0.130175,-0.02893 -0.433917,0 -0.824442,0.101248 -0.390526,0.101247 -0.708731,0.318206 -0.303742,0.216958 -0.535165,0.564092 -0.231422,0.347133 -0.361597,0.85337 l -0.274814,1.070328 h 3.4858 l 0.983545,-0.173566 -1.663349,6.653393 0.26035,0.115712 1.301751,-1.648885 0.520701,0.303742 -0.809979,1.229431 q -0.506236,0.766587 -1.012473,1.026937 -0.506236,0.245887 -0.925689,0.245887 -0.390525,0 -0.650876,-0.115712 -0.26035,-0.101247 -0.433917,-0.26035 -0.159102,-0.173567 -0.231422,-0.376061 -0.05786,-0.216959 -0.05786,-0.433917 0,-0.173567 0.04339,-0.404989 0.04339,-0.245887 0.08678,-0.40499 l 1.200503,-4.845406 h -2.314224 l -1.764595,6.986064 q -0.188031,0.723194 -0.520701,1.243895 -0.33267,0.5207 -0.78105,0.85337 -0.433917,0.33267 -0.954618,0.491773 -0.5207,0.159102 -1.084792,0.159102 z"
       id="text1"
       aria-label="gefi" />
  </g>
</svg>
