<?xml version="1.0" encoding="UTF-8" standalone="no"?>
<!-- Uploaded to: SVG Repo, www.svgrepo.com, Transformed by: SVG Repo Mixer Tools -->

<svg
   width="800"
   height="800"
   viewBox="-19.2 -19.2 230.4 230.4"
   fill="none"
   stroke="#161616"
   version="1.1"
   id="svg24"
   sodipodi:docname="google-docs-app.svg"
   xmlns:inkscape="http://www.inkscape.org/namespaces/inkscape"
   xmlns:sodipodi="http://sodipodi.sourceforge.net/DTD/sodipodi-0.dtd"
   xmlns="http://www.w3.org/2000/svg"
   xmlns:svg="http://www.w3.org/2000/svg">
  <defs
     id="defs28">
    <inkscape:path-effect
       effect="fill_between_many"
       method="originald"
       linkedpaths="#SVGRepo_iconCarrier,0,1"
       id="path-effect200"
       is_visible="true"
       lpeversion="0"
       join="true"
       close="true"
       autoreverse="true" />
  </defs>
  <sodipodi:namedview
     id="namedview26"
     pagecolor="#505050"
     bordercolor="#eeeeee"
     borderopacity="1"
     inkscape:showpageshadow="0"
     inkscape:pageopacity="0"
     inkscape:pagecheckerboard="0"
     inkscape:deskcolor="#505050"
     showgrid="false" />
  <g
     id="SVGRepo_bgCarrier"
     stroke-width="0"
     transform="matrix(0.92,0,0,0.92,7.68,7.68)">
    <rect
       x="-19.200001"
       y="-19.200001"
       width="230.39999"
       height="230.39999"
       rx="46.080002"
       fill="#ffffff"
       strokewidth="0"
       id="rect15" />
  </g>
  <path
     inkscape:original-d="M 0,0"
     inkscape:path-effect="#path-effect200"
     d="M 0,0"
     id="path202"
     class="UnoptimicedTransforms" />
  <g
     id="SVGRepo_iconCarrier-7"
     transform="matrix(0.04009648,0,0,0.04009648,224.05791,169.41382)"
     style="fill:#161616;fill-opacity:1"> <path
   d="m -2868.9464,-3835.0607 h -1547.6453 c -117.8618,0 -213.7436,97.8685 -213.7436,218.1722 V -64.755292 c 0,120.303742 95.8818,218.172122 213.7436,218.172122 h 2460.1373 c 117.8621,0 213.7442,-97.86838 213.7442,-218.172122 V -2758.2539 c 0,-58.2521 -22.2294,-113.0313 -62.5915,-154.2478 l -914.8965,-861.0525 c -40.077,-39.6893 -92.7649,-61.5065 -148.7482,-61.5065 z m 859.0559,3715.76238 H -4363.1558 V -3562.3455 h 1278.3284 v 731.5312 c 0,161.5381 128.6914,292.9688 286.862,292.9688 h 788.0749 z m -788.0749,-2691.26238 c -10.8475,0 -19.6823,-9.0905 -19.6823,-20.2536 v -574.1564 l 622.8507,594.3918 h -603.1684 z m -1175.6608,753.6938 c -91.5535,0 -166.0253,76.0329 -166.0253,169.4651 0,93.4505 74.4896,169.4652 166.0253,169.4652 91.5534,0 166.0252,-76.0329 166.0252,-169.4652 0,-93.4322 -74.4896,-169.4651 -166.0252,-169.4651 z m 302.8033,33.1258 H -2254.77 v 272.7151 h -1416.0529 z m -302.8033,512.3044 c -91.5535,0 -166.0253,76.033 -166.0253,169.4653 0,93.4322 74.4896,169.4652 166.0253,169.4652 91.5534,0 166.0252,-76.033 166.0252,-169.4652 0,-93.4323 -74.4896,-169.4653 -166.0252,-169.4653 z m 302.8033,33.1077 H -2254.77 v 272.7151 h -1416.0529 z m -302.8033,512.32287 c -91.5535,0 -166.0253,76.03298 -166.0253,169.4652 0,93.4322 74.4896,169.46518 166.0253,169.46518 91.5534,0 166.0252,-76.03298 166.0252,-169.46518 0,-93.43222 -74.4896,-169.4652 -166.0252,-169.4652 z m 302.8033,33.10761 H -2254.77 v 272.71516 h -1416.0529 z"
   id="path138"
   style="fill:#161616;fill-opacity:1;stroke-width:17.9956" />
 </g>
</svg>
