<?xml version="1.0" encoding="UTF-8" standalone="no"?>
<!-- Generator: Adobe Illustrator 13.0.2, SVG Export Plug-In . SVG Version: 6.00 Build 14948)  -->

<svg
   version="1.1"
   id="Layer_1"
   x="0px"
   y="0px"
   width="64.000977"
   height="64"
   viewBox="0 0 64.000977 64"
   enable-background="new 0 0 64.000977 64"
   xml:space="preserve"
   sodipodi:docname="nd.svg"
   inkscape:export-filename="nd.svg"
   inkscape:export-xdpi="96"
   inkscape:export-ydpi="96"
   xmlns:inkscape="http://www.inkscape.org/namespaces/inkscape"
   xmlns:sodipodi="http://sodipodi.sourceforge.net/DTD/sodipodi-0.dtd"
   xmlns="http://www.w3.org/2000/svg"
   xmlns:svg="http://www.w3.org/2000/svg"><defs
   id="defs1925" /><sodipodi:namedview
   id="namedview1923"
   pagecolor="#505050"
   bordercolor="#eeeeee"
   borderopacity="1"
   inkscape:showpageshadow="0"
   inkscape:pageopacity="0"
   inkscape:pagecheckerboard="0"
   inkscape:deskcolor="#505050"
   showgrid="false" />
<g
   id="g1920">
	
	<g
   id="g1918"
   style="fill:#161616;fill-opacity:1">
		<path
   d="M 31.943848,0 C 40.896484,0 48.476562,3.105469 54.6875,9.314453 60.894531,15.486328 64.000977,23.045898 64.000977,32 c 0,8.954102 -3.048828,16.457031 -9.145508,22.513672 C 48.417969,60.837891 40.779297,64 31.942871,64 23.293945,64 15.790039,60.857422 9.429199,54.570312 3.144043,48.286133 0,40.761719 0,32.000977 0,23.277344 3.144043,15.715821 9.429199,9.316407 15.640137,3.105469 23.14502,0 31.943848,0 Z m 0.116699,5.771484 c -7.275391,0 -13.429688,2.570312 -18.458496,7.714844 C 8.381836,18.783203 5.772949,24.954102 5.772949,32 c 0,7.125 2.589844,13.256836 7.77002,18.400391 5.181152,5.181641 11.352051,7.770508 18.515625,7.770508 7.123047,0 13.332031,-2.608398 18.626953,-7.828125 C 55.713867,45.466797 58.228516,39.353516 58.228516,32 c 0,-7.3125 -2.553711,-13.484375 -7.65625,-18.513672 C 45.504883,8.341797 39.333984,5.771484 32.060547,5.771484 Z m 12.056641,18.684571 v 5.485352 H 20.859863 v -5.485352 z m 0,10.287109 v 5.481445 H 20.859863 v -5.481445 z"
   id="path1916"
   style="fill:#161616;fill-opacity:1" />
	</g>
</g>
</svg>
